<svg xmlns="http://www.w3.org/2000/svg" viewBox="0 0 64 64" aria-labelledby="title"
aria-describedby="desc" role="img" xmlns:xlink="http://www.w3.org/1999/xlink">
  <title>Tumblr</title>
  <desc>A line styled icon from Orion Icon Library.</desc>
  <path data-name="layer1"
  d="M43.219 52.156a7.1 7.1 0 0 1-7.406-7.125v-18.25a.5.5 0 0 1 .5-.5h12.125a.5.5 0 0 0 .5-.5v-8.375a.5.5 0 0 0-.5-.5H36.313a.5.5 0 0 1-.5-.5V2.5a.5.5 0 0 0-.5-.5h-8.481a.5.5 0 0 0-.494.494c-.248 11.227-8.912 14.262-10.793 14.79a.491.491 0 0 0-.358.479v8.019a.5.5 0 0 0 .5.5h6.5a.5.5 0 0 1 .5.5v21.624C22.688 55.813 29.531 62 37.875 62c7.251 0 11.67-2.478 12.7-3.127a.5.5 0 0 0 .234-.424v-8.36a.5.5 0 0 0-.833-.372 10.208 10.208 0 0 1-6.757 2.439z"
  fill="none" stroke="#202020" stroke-linecap="round" stroke-miterlimit="10"
  stroke-width="2" stroke-linejoin="round"></path>
</svg>